<?xml version="1.0" encoding="iso-8859-1"?>
<!-- Uploaded to: SVG Repo, www.svgrepo.com, Generator: SVG Repo Mixer Tools -->
<svg fill="#000000" height="800px" width="800px" version="1.1" id="Layer_1" xmlns="http://www.w3.org/2000/svg" xmlns:xlink="http://www.w3.org/1999/xlink" 
	 viewBox="0 0 468.352 468.352" xml:space="preserve">
<g>
	<g>
		<path d="M460.852,360.082h-19.653V139.846c0-14.215-11.565-25.78-25.78-25.78H300.37c-4.167-32.829-32.252-58.3-66.194-58.3
			c-33.942,0-62.027,25.472-66.194,58.3H52.938c-14.215,0-25.78,11.565-25.78,25.78v220.236H7.5c-4.142,0-7.5,3.358-7.5,7.5
			c0,24.815,20.188,45.004,45.004,45.004h378.344c24.815,0,45.004-20.188,45.004-45.004
			C468.352,363.44,464.995,360.082,460.852,360.082z M234.176,70.766c28.533,0,51.747,23.214,51.747,51.747
			s-23.214,51.747-51.747,51.747s-51.747-23.214-51.747-51.747S205.643,70.766,234.176,70.766z M234.176,189.261
			c26.197,0,48.906-15.177,59.826-37.194h109.196v185.02h-63.04v-87.9c0.001-31.949-25.991-57.941-57.94-57.941
			c-5.471,0-10.887,1.571-15.665,4.544c-9.702,6.042-20.897,9.236-32.375,9.236c-11.483,0-22.682-3.194-32.388-9.237
			c-4.775-2.972-10.191-4.542-15.662-4.542c-15.463,0-30.01,6.024-40.966,16.97c-10.939,10.951-16.964,25.501-16.964,40.97v87.9
			h-63.04v-185.02H174.35C185.27,174.084,207.979,189.261,234.176,189.261z M293.438,290.596c-4.143,0-7.5,3.358-7.5,7.5v38.99
			h-103.52v-38.99c0-4.142-3.358-7.5-7.5-7.5c-4.142,0-7.5,3.358-7.5,7.5v38.99h-24.22v-87.9c0-11.465,4.466-22.251,12.57-30.364
			c8.119-8.11,18.901-12.576,30.36-12.576c2.667,0,5.342,0.788,7.735,2.277c12.084,7.525,26.025,11.503,40.314,11.503
			c14.283,0,28.22-3.978,40.302-11.501c2.396-1.491,5.071-2.278,7.738-2.278c23.678,0,42.94,19.263,42.94,42.94v87.9h-24.221v-38.99
			C300.938,293.954,297.581,290.596,293.438,290.596z M42.158,139.846c0-5.944,4.836-10.78,10.78-10.78h114.816
			c0.266,2.719,0.708,5.386,1.292,8H57.658c-4.142,0-7.5,3.358-7.5,7.5v200.02c0,4.142,3.358,7.5,7.5,7.5h353.041
			c4.143,0,7.5-3.358,7.5-7.5v-200.02c0-4.142-3.357-7.5-7.5-7.5H299.306c0.584-2.614,1.026-5.281,1.292-8h114.82
			c5.944,0,10.78,4.836,10.78,10.78v220.236H42.158V139.846z M423.348,397.586H45.004c-13.955,0-25.716-9.578-29.055-22.504h436.454
			C449.064,388.009,437.303,397.586,423.348,397.586z"/>
	</g>
</g>
</svg>